<?xml version="1.0" encoding="UTF-8" standalone="no"?>
<!-- Created with Inkscape (http://www.inkscape.org/) -->

<svg
   xmlns:dc="http://purl.org/dc/elements/1.1/"
   xmlns:cc="http://creativecommons.org/ns#"
   xmlns:rdf="http://www.w3.org/1999/02/22-rdf-syntax-ns#"
   xmlns:svg="http://www.w3.org/2000/svg"
   xmlns="http://www.w3.org/2000/svg"
   xmlns:sodipodi="http://sodipodi.sourceforge.net/DTD/sodipodi-0.dtd"
   xmlns:inkscape="http://www.inkscape.org/namespaces/inkscape"
   id="svg3510"
   version="1.1"
   inkscape:version="0.92.1 r15371"
   width="51.200001"
   height="51.200001"
   viewBox="0 0 48 48"
   sodipodi:docname="nautilus-locompress.svg">
  <metadata
     id="metadata3516">
    <rdf:RDF>
      <cc:Work
         rdf:about="">
        <dc:format>image/svg+xml</dc:format>
        <dc:type
           rdf:resource="http://purl.org/dc/dcmitype/StillImage" />
        <dc:title />
      </cc:Work>
    </rdf:RDF>
  </metadata>
  <defs
     id="defs3514">
    <filter
       style="color-interpolation-filters:sRGB"
       inkscape:label="Drop Shadow"
       id="filter4120">
      <feFlood
         flood-opacity="0.498039"
         flood-color="rgb(0,0,0)"
         result="flood"
         id="feFlood4122" />
      <feComposite
         in="flood"
         in2="SourceGraphic"
         operator="in"
         result="composite1"
         id="feComposite4124" />
      <feGaussianBlur
         in="composite1"
         stdDeviation="3"
         result="blur"
         id="feGaussianBlur4126" />
      <feOffset
         dx="2"
         dy="2"
         result="offset"
         id="feOffset4128" />
      <feComposite
         in="SourceGraphic"
         in2="offset"
         operator="over"
         result="composite2"
         id="feComposite4130" />
    </filter>
    <filter
       style="color-interpolation-filters:sRGB"
       inkscape:label="Drop Shadow"
       id="filter5117">
      <feFlood
         flood-opacity="0.498039"
         flood-color="rgb(0,0,0)"
         result="flood"
         id="feFlood5119" />
      <feComposite
         in="flood"
         in2="SourceGraphic"
         operator="in"
         result="composite1"
         id="feComposite5121" />
      <feGaussianBlur
         in="composite1"
         stdDeviation="3"
         result="blur"
         id="feGaussianBlur5123" />
      <feOffset
         dx="-1.38778e-16"
         dy="-6.38378e-16"
         result="offset"
         id="feOffset5125" />
      <feComposite
         in="SourceGraphic"
         in2="offset"
         operator="over"
         result="composite2"
         id="feComposite5127" />
    </filter>
    <filter
       style="color-interpolation-filters:sRGB"
       inkscape:label="Drop Shadow"
       id="filter5302">
      <feFlood
         flood-opacity="0.498039"
         flood-color="rgb(0,0,0)"
         result="flood"
         id="feFlood5304" />
      <feComposite
         in="flood"
         in2="SourceGraphic"
         operator="in"
         result="composite1"
         id="feComposite5306" />
      <feGaussianBlur
         in="composite1"
         stdDeviation="3"
         result="blur"
         id="feGaussianBlur5308" />
      <feOffset
         dx="0"
         dy="-6.38378e-16"
         result="offset"
         id="feOffset5310" />
      <feComposite
         in="SourceGraphic"
         in2="offset"
         operator="over"
         result="composite2"
         id="feComposite5312" />
    </filter>
    <filter
       style="color-interpolation-filters:sRGB"
       inkscape:label="Drop Shadow"
       id="filter5326">
      <feFlood
         flood-opacity="0.498039"
         flood-color="rgb(0,0,0)"
         result="flood"
         id="feFlood5328" />
      <feComposite
         in="flood"
         in2="SourceGraphic"
         operator="in"
         result="composite1"
         id="feComposite5330" />
      <feGaussianBlur
         in="composite1"
         stdDeviation="3"
         result="blur"
         id="feGaussianBlur5332" />
      <feOffset
         dx="0"
         dy="-6.38378e-16"
         result="offset"
         id="feOffset5334" />
      <feComposite
         in="SourceGraphic"
         in2="offset"
         operator="over"
         result="composite2"
         id="feComposite5336" />
    </filter>
  </defs>
  <sodipodi:namedview
     pagecolor="#ffffff"
     bordercolor="#666666"
     borderopacity="1"
     objecttolerance="10"
     gridtolerance="10"
     guidetolerance="10"
     inkscape:pageopacity="0"
     inkscape:pageshadow="2"
     inkscape:window-width="1916"
     inkscape:window-height="1015"
     id="namedview3512"
     showgrid="false"
     inkscape:zoom="11.313708"
     inkscape:cx="60.16317"
     inkscape:cy="23.724827"
     inkscape:window-x="0"
     inkscape:window-y="27"
     inkscape:window-maximized="0"
     inkscape:current-layer="g5338" />
  <g
     id="g5338"
     transform="matrix(0.0811635,0,0,0.0811635,51.189686,-26.698223)">
    <g
       id="g5344"
       transform="matrix(1.1818182,0,0,1.1818182,60.90891,-113.57151)">
      <path
         sodipodi:nodetypes="csscscccccccc"
         style="fill:#526c78;fill-opacity:1;filter:url(#filter5326)"
         d="m -552.11434,500.0681 c 0,0 0.62925,-78.63671 2.59184,-82.88351 3.09418,-6.69542 6.82998,-10.57482 13.19183,-13.69891 l 5.7041,-2.80109 75,-0.32788 c 41.25,-0.18034 78.825,-0.0217 83.5,0.35242 l 8.50031,0.68031 23.79555,23.64757 23.79571,23.64799 24.25,20 h 24.25 v 31.3831 z"
         id="path4156"
         inkscape:connector-curvature="0" />
      <path
         style="fill:#778f9a;fill-opacity:1;filter:url(#filter5302)"
         d="m -316.03492,448.68528 -47.5918,51.38282 h 22 210.47852 c 0,0 2.94105,-37.31091 -3.54492,-43.79688 -7.03459,-7.03465 -2.33966,-7.5864 -72.23688,-7.58622 z"
         id="path5129"
         inkscape:connector-curvature="0"
         sodipodi:nodetypes="ccccssc" />
      <path
         style="fill:#cdd6da;fill-opacity:1;stroke:none;filter:url(#filter5117)"
         d="m -537.04128,490.1493 h 404.08469 c 13.2069,0 23.83916,16.81814 23.83916,37.70884 v 259.88533 c 0,20.89069 -10.63226,37.70884 -23.83916,37.70884 h -404.08469 c -13.20689,0 -23.83915,-16.81815 -23.83915,-37.70884 V 527.85814 c 0,-20.8907 10.63226,-37.70884 23.83915,-37.70884 z"
         id="rect5006"
         inkscape:connector-curvature="0"
         sodipodi:nodetypes="sssssssss" />
      <path
         style="fill:#ffffff;fill-opacity:1;stroke:none;filter:url(#filter4120)"
         d="m -341.12657,567.4144 c -51.30141,0 -73.62711,0.32812 -75.3418,1.10937 -3.47083,1.58143 -4.65873,4.94789 -4.65235,13.1875 0.007,8.48463 1.40199,14.25636 3.78321,15.64454 2.36609,1.37937 149.65785,1.42471 152.23242,0.0469 2.54321,-1.36108 3.96592,-6.98012 3.97266,-15.69141 0.006,-8.23962 -1.17956,-11.60607 -4.6504,-13.1875 -1.71468,-0.78126 -24.04233,-1.10937 -75.34374,-1.10937 z"
         id="rect3968"
         inkscape:connector-curvature="0" />
    </g>
    <path
       inkscape:connector-curvature="0"
       id="path4523"
       style="font-style:normal;font-variant:normal;font-weight:normal;font-stretch:normal;font-size:medium;line-height:1.25;font-family:FontAwesome;-inkscape-font-specification:FontAwesome;letter-spacing:0px;word-spacing:0px;fill:#000000;fill-opacity:1;stroke:none;stroke-width:1.49468076"
       d="m -203.69025,893.90677 q -3.20844,3.20844 -7.98966,3.33427 h -9.43659 q -4.7812,-2e-5 -8.11547,-3.33428 -3.39717,-3.39718 -3.27137,-8.05256 l -0.0629,-36.92855 -44.2891,44.28909 q -3.27135,3.27135 -7.67509,2.89389 -4.40374,-0.25164 -7.73801,-3.58591 l -8.05256,-8.05256 q -3.33426,-3.33426 -3.64882,-7.80091 -0.31455,-4.34084 2.9568,-7.61219 l 44.2891,-44.2891 -36.92856,-0.0629 q -4.65538,0.1258 -8.05255,-3.27137 -3.39717,-3.39717 -3.27136,-8.05255 l -1e-5,-9.4366 q 1e-5,-4.78121 3.27136,-8.05256 3.33427,-3.33427 8.11547,-3.33427 h 81.90967 q 4.52955,-0.12582 7.98965,3.33427 3.39717,3.39718 3.39718,8.05256 v 81.90967 q -0.12582,4.7812 -3.39718,8.05256 z" />
    <path
       d="m -163.69166,893.90677 q 3.20844,3.20844 7.98966,3.33427 h 9.43659 q 4.7812,-2e-5 8.11546,-3.33428 3.39718,-3.39718 3.27138,-8.05256 l 0.0629,-36.92855 44.289087,44.28909 q 3.27135,3.27135 7.6751,2.89389 4.40374,-0.25164 7.73801,-3.58591 l 8.05256,-8.05256 q 3.33426,-3.33426 3.64881,-7.80091 0.31456,-4.34084 -2.95679,-7.61219 l -44.289097,-44.2891 36.928547,-0.0629 q 4.65539,0.1258 8.05256,-3.27137 3.39717,-3.39717 3.27136,-8.05255 v -9.4366 q 0,-4.78121 -3.27135,-8.05256 -3.33427,-3.33427 -8.11548,-3.33427 h -81.909657 q -4.52956,-0.12582 -7.98965,3.33427 -3.39717,3.39718 -3.39718,8.05256 v 81.90967 q 0.12582,4.7812 3.39718,8.05256 z"
       style="font-style:normal;font-variant:normal;font-weight:normal;font-stretch:normal;font-size:medium;line-height:1.25;font-family:FontAwesome;-inkscape-font-specification:FontAwesome;letter-spacing:0px;word-spacing:0px;fill:#000000;fill-opacity:1;stroke:none;stroke-width:1.49468076"
       id="path4527"
       inkscape:connector-curvature="0" />
    <path
       d="m -203.69025,669.54721 q -3.20844,-3.20844 -7.98966,-3.33427 h -9.43659 q -4.7812,2e-5 -8.11547,3.33428 -3.39717,3.39718 -3.27137,8.05256 l -0.0629,36.92855 -44.2891,-44.28909 q -3.27135,-3.27135 -7.67509,-2.89389 -4.40374,0.25164 -7.73801,3.58591 l -8.05256,8.05256 q -3.33426,3.33426 -3.64882,7.80091 -0.31455,4.34084 2.9568,7.61219 l 44.2891,44.2891 -36.92856,0.0629 q -4.65538,-0.1258 -8.05255,3.27137 -3.39717,3.39717 -3.27136,8.05255 l -1e-5,9.4366 q 1e-5,4.78121 3.27136,8.05256 3.33427,3.33427 8.11547,3.33427 h 81.90967 q 4.52955,0.12582 7.98965,-3.33427 3.39717,-3.39718 3.39718,-8.05256 v -81.90967 q -0.12582,-4.7812 -3.39718,-8.05256 z"
       style="font-style:normal;font-variant:normal;font-weight:normal;font-stretch:normal;font-size:medium;line-height:1.25;font-family:FontAwesome;-inkscape-font-specification:FontAwesome;letter-spacing:0px;word-spacing:0px;fill:#000000;fill-opacity:1;stroke:none;stroke-width:1.49468076"
       id="path4529"
       inkscape:connector-curvature="0" />
    <path
       inkscape:connector-curvature="0"
       id="path4531"
       style="font-style:normal;font-variant:normal;font-weight:normal;font-stretch:normal;font-size:medium;line-height:1.25;font-family:FontAwesome;-inkscape-font-specification:FontAwesome;letter-spacing:0px;word-spacing:0px;fill:#000000;fill-opacity:1;stroke:none;stroke-width:1.49468076"
       d="m -163.69166,669.54721 q 3.20844,-3.20844 7.98966,-3.33427 h 9.43659 q 4.7812,2e-5 8.11546,3.33428 3.39718,3.39718 3.27138,8.05256 l 0.0629,36.92855 44.289087,-44.28909 q 3.27135,-3.27135 7.6751,-2.89389 4.40374,0.25164 7.73801,3.58591 l 8.05256,8.05256 q 3.33426,3.33426 3.64881,7.80091 0.31456,4.34084 -2.95679,7.61219 l -44.289097,44.2891 36.928547,0.0629 q 4.65539,-0.1258 8.05256,3.27137 3.39717,3.39717 3.27136,8.05255 v 9.4366 q 0,4.78121 -3.27135,8.05256 -3.33427,3.33427 -8.11548,3.33427 h -81.909657 q -4.52956,0.12582 -7.98965,-3.33427 -3.39717,-3.39718 -3.39718,-8.05256 v -81.90967 q 0.12582,-4.7812 3.39718,-8.05256 z" />
  </g>
</svg>
