<?xml version="1.0" encoding="UTF-8" standalone="no"?>
<!-- Created with Inkscape (http://www.inkscape.org/) -->

<svg
   xmlns:dc="http://purl.org/dc/elements/1.1/"
   xmlns:cc="http://creativecommons.org/ns#"
   xmlns:rdf="http://www.w3.org/1999/02/22-rdf-syntax-ns#"
   xmlns:svg="http://www.w3.org/2000/svg"
   xmlns="http://www.w3.org/2000/svg"
   xmlns:sodipodi="http://sodipodi.sourceforge.net/DTD/sodipodi-0.dtd"
   xmlns:inkscape="http://www.inkscape.org/namespaces/inkscape"
   id="svg3510"
   version="1.1"
   inkscape:version="0.91 r13725"
   width="48"
   height="48"
   viewBox="0 0 48 48"
   sodipodi:docname="nautilus-jpgcompress.svg">
  <metadata
     id="metadata3516">
    <rdf:RDF>
      <cc:Work
         rdf:about="">
        <dc:format>image/svg+xml</dc:format>
        <dc:type
           rdf:resource="http://purl.org/dc/dcmitype/StillImage" />
        <dc:title />
      </cc:Work>
    </rdf:RDF>
  </metadata>
  <defs
     id="defs3514">
    <filter
       style="color-interpolation-filters:sRGB"
       inkscape:label="Drop Shadow"
       id="filter4120">
      <feFlood
         flood-opacity="0.498039"
         flood-color="rgb(0,0,0)"
         result="flood"
         id="feFlood4122" />
      <feComposite
         in="flood"
         in2="SourceGraphic"
         operator="in"
         result="composite1"
         id="feComposite4124" />
      <feGaussianBlur
         in="composite1"
         stdDeviation="3"
         result="blur"
         id="feGaussianBlur4126" />
      <feOffset
         dx="2"
         dy="2"
         result="offset"
         id="feOffset4128" />
      <feComposite
         in="SourceGraphic"
         in2="offset"
         operator="over"
         result="composite2"
         id="feComposite4130" />
    </filter>
    <filter
       style="color-interpolation-filters:sRGB"
       inkscape:label="Drop Shadow"
       id="filter5117">
      <feFlood
         flood-opacity="0.498039"
         flood-color="rgb(0,0,0)"
         result="flood"
         id="feFlood5119" />
      <feComposite
         in="flood"
         in2="SourceGraphic"
         operator="in"
         result="composite1"
         id="feComposite5121" />
      <feGaussianBlur
         in="composite1"
         stdDeviation="3"
         result="blur"
         id="feGaussianBlur5123" />
      <feOffset
         dx="-1.38778e-16"
         dy="-6.38378e-16"
         result="offset"
         id="feOffset5125" />
      <feComposite
         in="SourceGraphic"
         in2="offset"
         operator="over"
         result="composite2"
         id="feComposite5127" />
    </filter>
    <filter
       style="color-interpolation-filters:sRGB"
       inkscape:label="Drop Shadow"
       id="filter5302">
      <feFlood
         flood-opacity="0.498039"
         flood-color="rgb(0,0,0)"
         result="flood"
         id="feFlood5304" />
      <feComposite
         in="flood"
         in2="SourceGraphic"
         operator="in"
         result="composite1"
         id="feComposite5306" />
      <feGaussianBlur
         in="composite1"
         stdDeviation="3"
         result="blur"
         id="feGaussianBlur5308" />
      <feOffset
         dx="0"
         dy="-6.38378e-16"
         result="offset"
         id="feOffset5310" />
      <feComposite
         in="SourceGraphic"
         in2="offset"
         operator="over"
         result="composite2"
         id="feComposite5312" />
    </filter>
    <filter
       style="color-interpolation-filters:sRGB"
       inkscape:label="Drop Shadow"
       id="filter5326">
      <feFlood
         flood-opacity="0.498039"
         flood-color="rgb(0,0,0)"
         result="flood"
         id="feFlood5328" />
      <feComposite
         in="flood"
         in2="SourceGraphic"
         operator="in"
         result="composite1"
         id="feComposite5330" />
      <feGaussianBlur
         in="composite1"
         stdDeviation="3"
         result="blur"
         id="feGaussianBlur5332" />
      <feOffset
         dx="0"
         dy="-6.38378e-16"
         result="offset"
         id="feOffset5334" />
      <feComposite
         in="SourceGraphic"
         in2="offset"
         operator="over"
         result="composite2"
         id="feComposite5336" />
    </filter>
  </defs>
  <sodipodi:namedview
     pagecolor="#ffffff"
     bordercolor="#666666"
     borderopacity="1"
     objecttolerance="10"
     gridtolerance="10"
     guidetolerance="10"
     inkscape:pageopacity="0"
     inkscape:pageshadow="2"
     inkscape:window-width="1916"
     inkscape:window-height="1015"
     id="namedview3512"
     showgrid="false"
     inkscape:zoom="11.313708"
     inkscape:cx="39.523164"
     inkscape:cy="23.664739"
     inkscape:window-x="0"
     inkscape:window-y="27"
     inkscape:window-maximized="0"
     inkscape:current-layer="g5338" />
  <g
     id="g5338"
     transform="matrix(0.0811635,0,0,0.0811635,51.189686,-26.698223)">
    <g
       id="g5344"
       transform="matrix(1.1818182,0,0,1.1818182,60.90891,-113.57151)">
      <path
         sodipodi:nodetypes="csscscccccccc"
         style="fill:#526c78;fill-opacity:1;filter:url(#filter5326)"
         d="m -552.11434,500.0681 c 0,0 0.62925,-78.63671 2.59184,-82.88351 3.09418,-6.69542 6.82998,-10.57482 13.19183,-13.69891 l 5.7041,-2.80109 75,-0.32788 c 41.25,-0.18034 78.825,-0.0217 83.5,0.35242 l 8.50031,0.68031 23.79555,23.64757 23.79571,23.64799 24.25,20 24.25,0 0,31.3831 z"
         id="path4156"
         inkscape:connector-curvature="0" />
      <path
         style="fill:#778f9a;fill-opacity:1;filter:url(#filter5302)"
         d="m -316.03492,448.68528 -47.5918,51.38282 22,0 210.47852,0 c 0,0 2.94105,-37.31091 -3.54492,-43.79688 -7.03459,-7.03465 -2.33966,-7.5864 -72.23688,-7.58622 z"
         id="path5129"
         inkscape:connector-curvature="0"
         sodipodi:nodetypes="ccccssc" />
      <path
         style="fill:#cdd6da;fill-opacity:1;stroke:none;filter:url(#filter5117)"
         d="m -537.04128,490.1493 404.08469,0 c 13.2069,0 23.83916,16.81814 23.83916,37.70884 l 0,259.88533 c 0,20.89069 -10.63226,37.70884 -23.83916,37.70884 l -404.08469,0 c -13.20689,0 -23.83915,-16.81815 -23.83915,-37.70884 l 0,-259.88533 c 0,-20.8907 10.63226,-37.70884 23.83915,-37.70884 z"
         id="rect5006"
         inkscape:connector-curvature="0"
         sodipodi:nodetypes="sssssssss" />
      <path
         style="fill:#ffffff;fill-opacity:1;stroke:none;filter:url(#filter4120)"
         d="m -341.12657,567.4144 c -51.30141,0 -73.62711,0.32812 -75.3418,1.10937 -3.47083,1.58143 -4.65873,4.94789 -4.65235,13.1875 0.007,8.48463 1.40199,14.25636 3.78321,15.64454 2.36609,1.37937 149.65785,1.42471 152.23242,0.0469 2.54321,-1.36108 3.96592,-6.98012 3.97266,-15.69141 0.006,-8.23962 -1.17956,-11.60607 -4.6504,-13.1875 -1.71468,-0.78126 -24.04233,-1.10937 -75.34374,-1.10937 z"
         id="rect3968"
         inkscape:connector-curvature="0" />
    </g>
    <path
       style="fill:#7b8b94;fill-opacity:1"
       d="m -331.87338,891.23851 c -2.74936,-3.92532 -3.12556,-19.8377 -3.12556,-132.20596 0,-121.20592 0.18793,-127.91359 3.6718,-131.06647 3.33575,-3.01879 15.37305,-3.32294 131.51327,-3.32294 125.164329,0 127.925519,0.084 131.857099,4.01567 3.93113,3.93112 4.01564,6.69278 4.01564,131.16323 l 0,127.14756 -4.64704,4.36568 -4.64705,4.36566 -127.756299,0 -127.75621,0 z m 69.1296,-40.83015 c 2.28204,-2.28186 3.2163,-9.01979 3.7521,-27.06096 l 0.71344,-24.02258 -6.23499,0 c -4.20365,0 -6.23497,0.98124 -6.23497,3.01176 0,1.65647 1.35529,3.01177 3.0117,3.01177 2.47592,0 3.0118,3.56434 3.0118,20.03207 0,19.1519 -0.22055,20.17657 -5.01958,23.32103 -4.64987,3.0467 -5.38926,3.0467 -10.03923,0 -2.76073,-1.80895 -5.01958,-4.17165 -5.01958,-5.25052 0,-1.07885 -1.35529,-1.96154 -3.01171,-1.96154 -3.57775,0 -3.71185,0.96367 -0.87266,6.26875 4.25306,7.94699 19.12698,9.4664 25.94368,2.65022 z m 24.12099,-4.9033 c 0,-9.83973 0.1209,-10.0392 6.08795,-10.0392 16.61835,0 27.5231,-12.82033 22.08067,-25.95947 -3.01693,-7.28354 -9.6328,-10.18157 -23.24356,-10.18157 l -10.94867,0 0,28.10971 c 0,23.64784 0.47814,28.10969 3.01181,28.10969 2.27553,0 3.0118,-2.45401 3.0118,-10.03916 z m 0,-27.84858 0,-12.30813 8.89175,0 c 9.91835,0 15.2022,3.75477 15.2022,10.80275 0,7.63379 -4.58178,11.6142 -14.67887,12.75231 l -9.41508,1.06119 z m 72.28201,34.87599 c 0,-2.39028 -2.90015,-3.01174 -14.05479,-3.01174 l -14.05488,0 0,-10.03919 0,-10.03917 12.04701,0 c 9.3699,0 12.04702,-0.66927 12.04702,-3.01175 0,-2.3425 -2.67712,-3.01175 -12.04702,-3.01175 l -12.04701,0 0,-9.03528 0,-9.03524 14.05488,0 c 11.15464,0 14.05479,-0.62148 14.05479,-3.01177 0,-2.4409 -3.23482,-3.01176 -17.06659,-3.01176 l -17.0666,0 0,28.10971 0,28.10969 17.0666,0 c 13.83177,0 17.06659,-0.57085 17.06659,-3.01175 z m 42.4336,0.68611 7.76234,-2.32566 0,-12.73311 0,-12.73311 -8.03138,0 c -5.80039,0 -8.03137,0.8366 -8.03137,3.01176 0,1.87396 1.89631,3.01174 5.01966,3.01174 4.34015,0 5.01957,0.89685 5.01957,6.62585 0,8.07554 -3.0458,11.44468 -10.34632,11.44468 -8.76516,0 -15.29449,-4.00822 -18.89745,-11.60089 -7.93576,-16.72342 3.03985,-35.58884 19.92036,-34.24013 9.89524,0.79062 12.85103,-2.38712 4.33804,-4.66383 -8.5537,-2.28762 -19.98985,1.40201 -25.81939,8.33013 -12.05674,14.32856 -8.1191,38.53362 7.36423,45.26852 7.91881,3.44449 11.85543,3.55407 21.70171,0.60405 z m -84.59816,-93.04654 0,-23.09011 22.08626,0 22.08616,0 0,-31.12144 0,-31.12147 -53.20763,0 -53.20765,0 0,54.21157 0,54.21156 31.12147,0 31.12139,0 z m 88.34476,3.01176 0,-20.07836 -19.07436,0 -19.07447,0 0,20.07836 0,20.07835 19.07447,0 19.07436,0 z"
       id="path5395"
       inkscape:connector-curvature="0"
       sodipodi:nodetypes="sssssscccccssscsssssssssssssscsssccsssccsscccssscccssscccssscccssssssssssscccccccccccccccccccccc" />
  </g>
</svg>
